<?xml version="1.0" encoding="iso-8859-1"?>
<!-- Generator: Adobe Illustrator 17.1.0, SVG Export Plug-In . SVG Version: 6.00 Build 0)  -->
<!DOCTYPE svg PUBLIC "-//W3C//DTD SVG 1.1//EN" "http://www.w3.org/Graphics/SVG/1.1/DTD/svg11.dtd">
<svg version="1.1" id="Capa_1" xmlns="http://www.w3.org/2000/svg" xmlns:xlink="http://www.w3.org/1999/xlink" x="0px" y="0px"
	 viewBox="0 0 376.975 376.975" style="enable-background:new 0 0 376.975 376.975;" xml:space="preserve">
<path id="XMLID_1391_" d="M194.234,87.506c15.155,0,30.497-11.743,30.497-34.186c0-16.095-10.871-37.725-24.749-49.244
	c-3.333-2.768-8.164-2.768-11.497,0c-13.877,11.519-24.747,33.149-24.747,49.244C163.738,75.762,179.08,87.506,194.234,87.506z
	 M194.233,23.814c7.101,8.701,12.497,20.924,12.497,29.506c0,11.946-6.731,16.186-12.497,16.186
	c-5.764,0-12.496-4.239-12.496-16.186C181.738,44.737,187.133,32.515,194.233,23.814z M300.534,289.51
	c0-16.17-13.155-29.325-29.325-29.325c-16.168,0-29.322,13.155-29.322,29.325s13.154,29.324,29.322,29.324
	C287.379,318.834,300.534,305.679,300.534,289.51z M259.887,289.51c0-6.245,5.079-11.325,11.322-11.325
	c6.245,0,11.325,5.08,11.325,11.325c0,6.244-5.08,11.324-11.325,11.324C264.966,300.834,259.887,295.754,259.887,289.51z
	 M134.781,279.444c0.28,4.963-3.516,9.213-8.479,9.493c-8.58,0.484-17.491,0.73-26.486,0.73c-8.995,0-17.907-0.246-26.488-0.73
	c-4.963-0.28-8.759-4.53-8.479-9.493c0.28-4.962,4.54-8.768,9.493-8.478c16.488,0.93,34.458,0.93,50.945,0
	C130.244,270.697,134.501,274.481,134.781,279.444z M376.971,216.875v105.792c0.002,0.089,0.004,0.178,0.004,0.268
	c0,11.206-12.318,18.541-39.942,23.781c-21.571,4.092-50.133,6.346-80.424,6.346c-11.332,0-22.542-0.318-33.318-0.947
	c-4.962-0.289-8.75-4.546-8.461-9.508c0.289-4.963,4.529-8.77,9.509-8.461c10.429,0.607,21.287,0.916,32.271,0.916
	c60.369,0,95.681-8.842,102.362-13.914v-86.575c-5.807,2.168-13.086,4.062-21.938,5.741c-21.57,4.092-50.132,6.346-80.424,6.346
	c-11.32,0-22.53-0.319-33.318-0.948c-4.962-0.289-8.75-4.546-8.461-9.508c0.289-4.963,4.529-8.749,9.509-8.461
	c10.44,0.608,21.298,0.917,32.271,0.917c60.369,0,95.682-8.842,102.362-13.914v-14.91c-5.807,2.168-13.086,4.063-21.938,5.741
	c-21.571,4.092-50.133,6.346-80.424,6.346c-11.32,0-22.53-0.319-33.318-0.948c-4.962-0.289-8.75-4.546-8.461-9.508
	c0.289-4.963,4.529-8.756,9.509-8.461c10.44,0.608,21.298,0.917,32.271,0.917c53.752,0,87.64-7.01,99.139-12.127
	c-11.499-5.117-45.387-12.127-99.139-12.127c-10.984,0-21.841,0.309-32.271,0.916c-4.968,0.294-9.22-3.499-9.509-8.461
	s3.499-9.219,8.461-9.508c10.777-0.629,21.987-0.947,33.318-0.947c30.292,0,58.854,2.254,80.424,6.346
	c27.624,5.24,39.942,12.575,39.942,23.781c0,0.292-0.008,0.581-0.025,0.868c0.014,0.206,0.021,0.414,0.021,0.623v32.978
	c0.002,0.089,0.004,0.178,0.004,0.268C376.975,216.646,376.973,216.76,376.971,216.875z M99.816,256.602
	c16.169,0,29.324-13.155,29.324-29.325s-13.155-29.324-29.324-29.324c-16.17,0-29.325,13.154-29.325,29.324
	S83.646,256.602,99.816,256.602z M99.816,215.953c6.244,0,11.324,5.08,11.324,11.324c0,6.245-5.08,11.325-11.324,11.325
	c-6.245,0-11.325-5.08-11.325-11.325C88.492,221.033,93.572,215.953,99.816,215.953z M164.686,98.183h-25.598V72.588
	c0-18.56-12.939-34.153-30.271-38.231V20.004h41.602c4.971,0,9-4.029,9-9s-4.029-9-9-9h-50.159c-0.293-0.014-0.592-0.014-0.885,0
	H75.902c-4.971,0-9,4.029-9,9s4.029,9,9,9h14.915v14.352c-17.333,4.079-30.272,19.673-30.272,38.232v25.596H34.947
	C15.677,98.183,0,113.861,0,133.131v215.623c0,12.931,18.128,18.028,33.922,21.024c17.689,3.355,41.09,5.203,65.894,5.203
	c24.803,0,48.205-1.848,65.894-5.203c15.793-2.996,33.922-8.094,33.922-21.024V133.131
	C199.632,113.861,183.955,98.183,164.686,98.183z M78.544,72.588c0-11.729,9.543-21.272,21.272-21.272
	c11.729,0,21.271,9.543,21.271,21.272v25.596H78.544V72.588z M181.632,346.398c-6.647,4.078-34.614,10.583-81.816,10.583
	c-47.202,0-75.169-6.505-81.816-10.583v-29.356c5.055,1.696,10.62,2.938,15.922,3.944c17.688,3.356,41.09,5.204,65.894,5.204
	c24.803,0,48.205-1.848,65.894-5.204c5.303-1.006,10.868-2.248,15.922-3.944V346.398z M181.632,297.607
	c-6.646,4.077-34.614,10.583-81.816,10.583S24.646,301.684,18,297.607V172.905c5.055,1.697,10.619,2.939,15.922,3.945
	c17.689,3.355,41.091,5.204,65.895,5.204c24.803,0,48.204-1.849,65.894-5.204c5.303-1.006,10.868-2.248,15.922-3.945V297.607z
	 M181.632,153.47c-6.647,4.078-34.615,10.584-81.816,10.584c-47.202,0-75.169-6.506-81.816-10.584v-20.34
	c0-9.345,7.603-16.947,16.947-16.947h129.739c9.344,0,16.947,7.603,16.947,16.947V153.47z"/>
<g>
</g>
<g>
</g>
<g>
</g>
<g>
</g>
<g>
</g>
<g>
</g>
<g>
</g>
<g>
</g>
<g>
</g>
<g>
</g>
<g>
</g>
<g>
</g>
<g>
</g>
<g>
</g>
<g>
</g>
</svg>
